<svg xmlns="http://www.w3.org/2000/svg"
 xmlns:xlink="http://www.w3.org/1999/xlink"
 width="13px" height="26px"  viewBox="0 0 13 26">
<path fill-rule="evenodd"  fill="#ffffff"
 d="M11.585571,2.0043945 C11.585571,2.0043945 8.947113,1.9995117 8.947113,1.9995117 C5.9830933,1.9995117 4.06781,4.1245117 4.06781,7.4140625 C4.06781,7.4140625 4.06781,9.910645 4.06781,9.910645 C4.06781,9.910645 1.414856,9.910645 1.414856,9.910645 C1.18573,9.910645 1.0001221,10.111328 1.0001221,10.359375 C1.0001221,10.359375 1.0001221,13.976074 1.0001221,13.976074 C1.0001221,14.224121 1.185852,14.424805 1.414856,14.424805 C1.414856,14.424805 4.0675964,14.424805 4.0675964,14.424805 C4.0675964,14.424805 4.0675964,23.551758 4.0675964,23.551758 C4.0675964,23.799316 4.2532043,24.0 4.482422,24.0 C4.482422,24.0 7.9434814,24.0 7.9434814,24.0 C8.172699,24.0 8.358337,23.799316 8.358337,23.551758 C8.358337,23.551758 8.358337,14.424805 8.358337,14.424805 C8.358337,14.424805 11.4599,14.424805 11.4599,14.424805 C11.689117,14.424805 11.874756,14.224121 11.874756,13.976074 C11.874756,13.976074 11.876007,10.359375 11.876007,10.359375 C11.876007,10.240234 11.832184,10.125977 11.754456,10.041992 C11.676636,9.95752 11.571014,9.910645 11.4609375,9.910645 C11.4609375,9.910645 8.358429,9.910645 8.358429,9.910645 C8.358429,9.910645 8.358429,7.7939453 8.358429,7.7939453 C8.358429,6.7768555 8.582642,6.260742 9.807709,6.260742 C9.807709,6.260742 11.585205,6.2597656 11.585205,6.2597656 C11.814209,6.2597656 11.999817,6.059082 11.999817,5.811035 C11.999817,5.811035 11.999817,2.4526367 11.999817,2.4526367 C11.999817,2.2050781 11.814453,2.0048828 11.585571,2.0043945 Z"/>
</svg>