<svg xmlns="http://www.w3.org/2000/svg"
 xmlns:xlink="http://www.w3.org/1999/xlink"
 width="44px" height="42px"  viewBox="0 0 44 42">
<path fill-rule="evenodd"  fill="#ed7e00"
 d="M4.375366,36.212646 C4.375366,36.212646 23.381226,36.212646 23.381226,36.212646 C24.297485,36.212646 25.160278,35.956787 25.875732,35.4729 C25.875732,35.4729 37.49707,23.786621 37.49707,23.786621 C38.00757,23.271973 38.289185,22.585693 38.289185,21.853516 C38.289185,21.121826 38.00757,20.434814 37.496338,19.920166 C36.98523,19.405273 36.3031,19.121338 35.576782,19.121338 C34.849854,19.121338 34.168457,19.405273 33.657227,19.920166 C33.657227,19.920166 24.685791,28.95581 24.685791,28.95581 C24.685791,28.95581 33.283936,11.911865 33.283936,11.911865 C33.29126,11.89624 33.29065,11.879639 33.296875,11.864258 C33.719727,11.379395 34.463013,11.255615 35.069702,11.609619 C35.40576,11.80542 35.649536,12.114258 35.75403,12.47998 C35.855103,12.836182 35.81299,13.204102 35.63379,13.516357 C35.57202,13.623779 35.542847,13.741211 35.542847,13.856934 C35.542847,14.093506 35.664307,14.323975 35.882324,14.450439 C36.206055,14.638184 36.62146,14.526855 36.80945,14.199951 C37.184082,13.547852 38.0448,13.340088 38.73169,13.739258 C39.429565,14.145264 39.693604,15.006836 39.31897,15.659668 C39.13159,15.987061 39.24292,16.40503 39.567383,16.593506 C39.67395,16.655762 39.79065,16.685059 39.906006,16.685059 C40.14099,16.685059 40.36902,16.562744 40.49463,16.343262 C40.49524,16.34253 40.49524,16.341064 40.49597,16.340576 C41.71167,14.21875 42.004883,11.777832 41.319946,9.469238 C40.64795,7.202881 39.103027,5.2717285 36.97107,4.031494 C32.521606,1.4448242 27.09961,2.7976074 24.624756,7.111328 C24.624023,7.112793 24.624023,7.1135254 24.623291,7.114258 C24.436035,7.4416504 24.547363,7.859375 24.871826,8.048096 C25.1969,8.236572 25.610962,8.124023 25.79895,7.7976074 C26.172974,7.144287 27.045288,6.943115 27.743652,7.3500977 C28.080322,7.54541 28.323486,7.854492 28.427979,8.220459 C28.529785,8.576416 28.48767,8.945557 28.309082,9.257324 C28.247314,9.364502 28.21814,9.482178 28.21814,9.598633 C28.21814,9.834961 28.339722,10.064697 28.557617,10.191162 C28.881348,10.37915 29.296753,10.267822 29.484741,9.940918 C29.859497,9.288086 30.720825,9.081055 31.407715,9.480225 C31.743774,9.675781 31.986816,9.984619 32.09131,10.350342 C32.193115,10.706787 32.151,11.075195 31.972534,11.386719 C31.923584,11.471436 31.900513,11.563232 31.890991,11.655518 C31.890991,11.655518 22.26062,30.743408 22.26062,30.743408 C22.26062,30.743408 4.375366,30.743408 4.375366,30.743408 C2.8780518,30.743408 1.6602783,31.96997 1.6602783,33.478027 C1.6602783,34.986084 2.8780518,36.212646 4.375366,36.212646 ZM32.086426,8.294678 C31.356812,7.8710938 30.517822,7.807373 29.784912,8.052246 C29.770508,7.9816895 29.75293,7.911133 29.733276,7.8410645 C29.530884,7.133301 29.065186,6.537842 28.423218,6.164795 C28.423218,6.164795 28.423218,6.164795 28.423218,6.164795 C28.112305,5.984131 27.783081,5.86792 27.45044,5.8117676 C29.822144,3.8127441 33.311646,3.4804688 36.29358,5.2148438 C39.276123,6.949463 40.73474,10.158447 40.201904,13.227295 C39.98816,12.964844 39.72278,12.734863 39.411865,12.5546875 C38.962524,12.293457 38.4718,12.169678 37.99048,12.169678 C37.68982,12.169678 37.39258,12.217285 37.11084,12.311768 C37.096558,12.241455 37.07898,12.170898 37.059326,12.100586 C36.856323,11.393799 36.391968,10.79834 35.749146,10.425049 C35.0188,10.000977 34.17981,9.9375 33.44751,10.182129 C33.433228,10.112061 33.41565,10.041504 33.395874,9.970947 C33.193604,9.263428 32.728638,8.668701 32.086426,8.294678 ZM4.375366,32.110596 C4.375366,32.110596 23.4729,32.110596 23.4729,32.110596 C23.4729,32.110596 34.616943,20.886963 34.616943,20.886963 C35.12549,20.372559 36.02539,20.374023 36.53662,20.886963 C36.791138,21.143799 36.93164,21.48706 36.93164,21.853516 C36.93164,22.220459 36.79187,22.56372 36.53662,22.819824 C36.53662,22.819824 25.066528,34.372314 25.066528,34.372314 C24.585327,34.681885 24.004272,34.845215 23.381226,34.845215 C23.381226,34.845215 4.375366,34.845215 4.375366,34.845215 C3.626709,34.845215 3.0179443,34.232178 3.0179443,33.478027 C3.0179443,32.72412 3.626709,32.110596 4.375366,32.110596 ZM41.25,38.91162 C41.25,38.91162 39.249023,36.89624 39.249023,36.89624 C39.249023,36.89624 33.47937,31.08545 33.47937,31.08545 C33.47937,31.08545 42.162964,22.339355 42.162964,22.339355 C42.428345,22.072266 42.428345,21.639893 42.162964,21.372803 C41.897583,21.105469 41.468628,21.105469 41.203247,21.372803 C41.203247,21.372803 25.790161,36.89624 25.790161,36.89624 C25.790161,36.89624 2.3139648,36.89624 2.3139648,36.89624 C2.3139648,36.89624 1.6352539,36.89624 1.6352539,36.89624 C1.6352539,36.89624 1.6352539,40.314453 1.6352539,40.314453 C1.6352539,40.314453 40.67383,40.314453 40.67383,40.314453 C40.68872,40.314453 40.70227,40.308838 40.717163,40.307617 C40.717163,40.307617 41.203857,40.797607 41.203857,40.797607 C41.33557,40.931152 41.509277,40.998047 41.683105,40.998047 C41.856934,40.998047 42.03064,40.931152 42.162964,40.797607 C42.428345,40.530518 42.428345,40.09839 42.162964,39.831055 C42.162964,39.831055 41.25,38.91162 41.25,38.91162 ZM32.519653,32.052002 C32.519653,32.052002 37.329346,36.89624 37.329346,36.89624 C37.329346,36.89624 27.709839,36.89624 27.709839,36.89624 C27.709839,36.89624 32.519653,32.052002 32.519653,32.052002 ZM2.9927979,38.94702 C2.9927979,38.94702 2.9927979,38.263428 2.9927979,38.263428 C2.9927979,38.263428 26.352173,38.263428 26.352173,38.263428 C26.352173,38.263428 38.68701,38.263428 38.68701,38.263428 C38.68701,38.263428 39.365723,38.94702 39.365723,38.94702 C39.365723,38.94702 2.9927979,38.94702 2.9927979,38.94702 ZM6.3867188,10.917969 C6.3867188,10.917969 7.7910156,10.917969 7.7910156,10.917969 C7.915283,11.914795 8.306274,12.82666 8.890015,13.582764 C8.890015,13.582764 7.894287,14.584717 7.894287,14.584717 C7.6289062,14.852295 7.6289062,15.284424 7.894287,15.551514 C8.026611,15.685059 8.200439,15.751953 8.3741455,15.751953 C8.547974,15.751953 8.72168,15.685059 8.854004,15.551514 C8.854004,15.551514 9.8498535,14.549316 9.8498535,14.549316 C10.600586,15.137451 11.505981,15.531006 12.494995,15.65625 C12.494995,15.65625 12.494995,17.0708 12.494995,17.0708 C12.494995,17.44873 12.799072,17.754395 13.173706,17.754395 C13.548462,17.754395 13.852539,17.44873 13.852539,17.0708 C13.852539,17.0708 13.852539,15.65625 13.852539,15.65625 C14.841553,15.531006 15.746948,15.137451 16.49768,14.549316 C16.49768,14.549316 17.49353,15.551514 17.49353,15.551514 C17.625854,15.685059 17.799683,15.751953 17.973389,15.751953 C18.147095,15.751953 18.320923,15.685059 18.453247,15.551514 C18.71875,15.284424 18.71875,14.852295 18.453247,14.584717 C18.453247,14.584717 17.45752,13.582764 17.45752,13.582764 C18.04126,12.82666 18.432373,11.914795 18.556519,10.917969 C18.556519,10.917969 19.96228,10.917969 19.96228,10.917969 C20.336914,10.917969 20.640991,10.612305 20.640991,10.234375 C20.640991,9.856201 20.336914,9.550537 19.96228,9.550537 C19.96228,9.550537 18.557861,9.550537 18.557861,9.550537 C18.433594,8.553955 18.042603,7.6418457 17.458862,6.885742 C17.458862,6.885742 18.45459,5.883545 18.45459,5.883545 C18.71997,5.616211 18.71997,5.184326 18.45459,4.916748 C18.189209,4.649658 17.760254,4.649658 17.494873,4.916748 C17.494873,4.916748 16.499023,5.9191895 16.499023,5.9191895 C15.748291,5.331299 14.8428955,4.9375 13.853882,4.8125 C13.853882,4.8125 13.853882,3.3979492 13.853882,3.3979492 C13.853882,3.0197754 13.549805,2.7141113 13.175171,2.7141113 C12.800415,2.7141113 12.496338,3.0197754 12.496338,3.3979492 C12.496338,3.3979492 12.496338,4.8125 12.496338,4.8125 C11.507324,4.9375 10.601929,5.331299 9.851196,5.9191895 C9.851196,5.9191895 8.855469,4.916748 8.855469,4.916748 C8.589966,4.649658 8.161011,4.649658 7.89563,4.916748 C7.630249,5.184326 7.630249,5.616211 7.89563,5.883545 C7.89563,5.883545 8.891357,6.885742 8.891357,6.885742 C8.306274,7.6418457 7.915283,8.553955 7.7910156,9.550537 C7.7910156,9.550537 6.3867188,9.550537 6.3867188,9.550537 C6.012085,9.550537 5.7078857,9.856201 5.7078857,10.234375 C5.7078857,10.612305 6.012085,10.917969 6.3867188,10.917969 ZM13.174438,6.1325684 C15.420532,6.1325684 17.247192,7.972168 17.247192,10.234375 C17.247192,12.496582 15.420532,14.3359375 13.174438,14.3359375 C10.928467,14.3359375 9.101807,12.496582 9.101807,10.234375 C9.101807,7.972168 10.928467,6.1325684 13.174438,6.1325684 Z"/>
</svg>