<svg xmlns="http://www.w3.org/2000/svg"
 xmlns:xlink="http://www.w3.org/1999/xlink"
 width="43px" height="42px"  viewBox="0 0 43 42">
<path fill-rule="evenodd"  fill="#ed7e00"
 d="M5.338623,2.244629 C5.005615,2.5690918 4.805908,3.0426025 5.503174,5.880127 C5.9208984,7.579956 9.18103,17.057983 10.291992,19.780762 C12.55249,25.320312 13.99939,25.137573 14.828369,25.243042 C15.233154,25.294678 15.626953,25.200562 15.967407,24.970703 C16.894287,24.345337 17.20337,24.162842 17.561523,23.951904 C17.687134,23.877808 17.82129,23.798462 17.989014,23.696655 C18.991089,25.31958 20.228271,27.837524 21.429321,30.281982 C23.045288,33.57141 24.716553,36.9729 26.052002,38.733154 C26.901123,39.85193 27.81958,40.181396 28.440674,40.26013 C29.629272,40.411255 30.858887,39.781494 31.57312,38.656006 C32.29773,37.51355 32.322266,36.15918 31.636719,35.121216 C30.225708,32.98401 9.569092,6.0996094 6.4726562,2.409668 C6.0426025,1.8970947 5.5303955,2.0579834 5.338623,2.244629 ZM30.31018,37.87256 C29.904053,38.51294 29.244751,38.87622 28.630737,38.798218 C28.148804,38.736816 27.669312,38.408447 27.244629,37.848633 C25.994995,36.201904 24.355713,32.86499 22.770386,29.638184 C21.3219,26.689941 19.953857,23.905273 18.834839,22.269775 C18.710083,22.087524 18.517212,21.977905 18.312256,21.951782 C18.143677,21.930176 17.966797,21.965454 17.81311,22.063477 C17.312622,22.38269 16.09143,23.102661 15.126709,23.753662 C15.08252,23.783203 15.056641,23.786377 15.018555,23.781616 C14.507202,24.043457 14.474731,23.659302 13.611816,22.501465 C12.221924,20.636475 8.297119,9.682251 7.161865,6.0843506 C6.7215576,4.688965 7.190674,5.458496 7.5355225,5.8969727 C11.265137,10.639893 29.017456,33.850586 30.388428,35.926758 C30.823242,36.58496 30.633057,37.363525 30.31018,37.87256 ZM41.42566,9.515869 C41.138916,9.223755 40.66687,9.216797 40.371704,9.500366 C38.468994,11.325073 36.694336,13.104248 35.268433,14.534058 C34.90393,14.899658 34.57019,15.234009 34.268066,15.535645 C34.268066,15.535645 32.862305,14.144775 32.862305,14.144775 C32.862305,14.144775 38.802856,8.447144 38.802856,8.447144 C39.09839,8.163574 39.10547,7.6971436 38.818848,7.4050293 C38.532104,7.112915 38.060303,7.105957 37.764526,7.38916 C37.764526,7.38916 31.808228,13.102173 31.808228,13.102173 C31.808228,13.102173 30.48462,11.792847 30.48462,11.792847 C30.48462,11.792847 36.460815,6.061035 36.460815,6.061035 C36.756348,5.77771 36.763428,5.311035 36.476807,5.019165 C36.18994,4.727051 35.718018,4.720093 35.42273,5.003418 C35.42273,5.003418 29.43103,10.750244 29.43103,10.750244 C29.43103,10.750244 28.141846,9.474976 28.141846,9.474976 C28.141846,9.474976 34.616943,3.2644043 34.616943,3.2644043 C34.912598,2.980835 34.919556,2.5144043 34.632935,2.2225342 C34.34619,1.930542 33.87451,1.9234619 33.57898,2.206787 C33.57898,2.206787 26.12732,9.353882 26.12732,9.353882 C24.222778,11.180786 24.369873,13.863281 26.444824,16.337036 C26.444824,16.337036 22.206665,20.463379 22.206665,20.463379 C21.911133,20.746582 21.904053,21.213135 22.190796,21.505249 C22.306152,21.622559 22.451416,21.693848 22.603271,21.718994 C22.828613,21.756104 23.06836,21.690186 23.244995,21.520752 C23.244995,21.520752 27.486328,17.39148 27.486328,17.39148 C28.321411,18.078857 29.308594,18.533691 30.345703,18.70398 C30.47937,18.725952 30.614014,18.743042 30.749268,18.755493 C32.102783,18.879883 33.343384,18.505615 34.15332,17.728638 C34.670288,17.23291 35.402588,16.498413 36.33008,15.568848 C37.750854,14.144531 39.5188,12.371582 41.409912,10.557983 C41.7052,10.274414 41.71228,9.808228 41.42566,9.515869 ZM30.887085,17.287842 C29.840698,17.191772 28.835327,16.702148 28.057129,15.909424 C26.533203,14.356445 25.495605,12.137085 27.074585,10.504028 C27.074585,10.504028 33.213013,16.576782 33.213013,16.576782 C33.179443,16.609375 33.14673,16.640747 33.11499,16.671265 C32.625244,17.14038 31.792603,17.371338 30.887085,17.287842 ZM18.83899,27.176392 C18.531006,26.906128 18.060059,26.933594 17.786621,27.237793 C14.786987,30.574219 9.343872,36.46765 7.50708,38.078003 C6.594116,38.87854 5.1557617,38.55542 4.385742,37.751465 C3.5802002,36.910522 3.7016602,35.845093 4.718994,34.82837 C7.30188,32.24817 11.106934,29.293457 13.977051,27.154175 C14.305786,26.908936 14.371338,26.4469 14.123535,26.121826 C13.875732,25.79712 13.408325,25.732422 13.07959,25.977295 C10.172485,28.14441 6.3103027,31.143433 3.6591797,33.791748 C1.7285156,35.72119 2.2607422,37.67627 3.3032227,38.764282 C3.892212,39.379272 4.7264404,39.82141 5.612549,39.966797 C6.5985107,40.12854 7.6486816,39.923218 8.49646,39.17993 C10.6188965,37.319214 16.726929,30.634644 18.901001,28.21643 C19.174438,27.912476 19.146606,27.446411 18.83899,27.176392 Z"/>
</svg>