<svg xmlns="http://www.w3.org/2000/svg"
 xmlns:xlink="http://www.w3.org/1999/xlink"
 width="41px" height="42px"  viewBox="0 0 41 42">
<path fill-rule="evenodd"  fill="#ed7e00"
 d="M39.2666,36.44995 C39.2666,36.44995 37.339233,36.44995 37.339233,36.44995 C37.339233,36.44995 37.339233,2.6376953 37.339233,2.6376953 C37.339233,2.255005 37.082275,2.0 36.6969,2.0 C36.6969,2.0 4.5756836,2.0 4.5756836,2.0 C4.1903076,2.0 3.9333496,2.255005 3.9333496,2.6376953 C3.9333496,2.6376953 3.9333496,36.44995 3.9333496,36.44995 C3.9333496,36.44995 2.0061035,36.44995 2.0061035,36.44995 C1.6204834,36.44995 1.3636475,36.704956 1.3636475,37.08777 C1.3636475,37.08777 1.3636475,39.63977 1.3636475,39.63977 C1.3636475,40.02246 1.6204834,40.277466 2.0061035,40.277466 C2.0061035,40.277466 39.2666,40.277466 39.2666,40.277466 C39.651978,40.277466 39.908936,40.02246 39.908936,39.63977 C39.908936,39.63977 39.908936,37.08777 39.908936,37.08777 C39.909058,36.704956 39.651978,36.44995 39.2666,36.44995 ZM5.2181396,3.2757568 C5.2181396,3.2757568 36.054443,3.2757568 36.054443,3.2757568 C36.054443,3.2757568 36.054443,36.44995 36.054443,36.44995 C36.054443,36.44995 26.417969,36.44995 26.417969,36.44995 C26.417969,36.44995 26.417969,29.432373 26.417969,29.432373 C26.417969,29.049683 26.161133,28.794312 25.775635,28.794312 C25.775635,28.794312 20.63623,28.794312 20.63623,28.794312 C20.63623,28.794312 15.496826,28.794312 15.496826,28.794312 C15.111328,28.794312 14.854492,29.049683 14.854492,29.432373 C14.854492,29.432373 14.854492,36.44995 14.854492,36.44995 C14.854492,36.44995 5.2181396,36.44995 5.2181396,36.44995 C5.2181396,36.44995 5.2181396,3.2757568 5.2181396,3.2757568 ZM16.139282,36.44995 C16.139282,36.44995 16.139282,30.07019 16.139282,30.07019 C16.139282,30.07019 19.993896,30.07019 19.993896,30.07019 C19.993896,30.07019 19.993896,36.44995 19.993896,36.44995 C19.993896,36.44995 16.139282,36.44995 16.139282,36.44995 ZM21.278687,30.07019 C21.278687,30.07019 25.1333,30.07019 25.1333,30.07019 C25.1333,30.07019 25.1333,36.44995 25.1333,36.44995 C25.1333,36.44995 21.278687,36.44995 21.278687,36.44995 C21.278687,36.44995 21.278687,30.07019 21.278687,30.07019 ZM38.624023,39.00171 C38.624023,39.00171 2.6484375,39.00171 2.6484375,39.00171 C2.6484375,39.00171 2.6484375,37.72583 2.6484375,37.72583 C2.6484375,37.72583 4.5756836,37.72583 4.5756836,37.72583 C4.5756836,37.72583 15.496948,37.72583 15.496948,37.72583 C15.496948,37.72583 20.636353,37.72583 20.636353,37.72583 C20.636353,37.72583 25.775757,37.72583 25.775757,37.72583 C25.775757,37.72583 36.69702,37.72583 36.69702,37.72583 C36.69702,37.72583 38.624146,37.72583 38.624146,37.72583 C38.624146,37.72583 38.624146,39.00171 38.624146,39.00171 C38.624146,39.00171 38.624023,39.00171 38.624023,39.00171 ZM13.56958,5.1896973 C13.56958,5.1896973 8.430298,5.1896973 8.430298,5.1896973 C8.0448,5.1896973 7.787842,5.4449463 7.787842,5.827759 C7.787842,5.827759 7.787842,9.655518 7.787842,9.655518 C7.787842,10.038086 8.0448,10.293335 8.430298,10.293335 C8.430298,10.293335 13.56958,10.293335 13.56958,10.293335 C13.9552,10.293335 14.212158,10.038086 14.212158,9.655518 C14.212158,9.655518 14.212158,5.827759 14.212158,5.827759 C14.212158,5.4449463 13.955078,5.1896973 13.56958,5.1896973 ZM12.927124,9.017578 C12.927124,9.017578 9.072632,9.017578 9.072632,9.017578 C9.072632,9.017578 9.072632,6.465576 9.072632,6.465576 C9.072632,6.465576 12.927124,6.465576 12.927124,6.465576 C12.927124,6.465576 12.927124,9.017578 12.927124,9.017578 ZM13.56958,12.207275 C13.56958,12.207275 8.430298,12.207275 8.430298,12.207275 C8.0448,12.207275 7.787842,12.462524 7.787842,12.845337 C7.787842,12.845337 7.787842,16.673096 7.787842,16.673096 C7.787842,17.055908 8.0448,17.310913 8.430298,17.310913 C8.430298,17.310913 13.56958,17.310913 13.56958,17.310913 C13.9552,17.310913 14.212158,17.055908 14.212158,16.673096 C14.212158,16.673096 14.212158,12.845337 14.212158,12.845337 C14.212158,12.462524 13.955078,12.207275 13.56958,12.207275 ZM12.927124,16.035034 C12.927124,16.035034 9.072632,16.035034 9.072632,16.035034 C9.072632,16.035034 9.072632,13.483398 9.072632,13.483398 C9.072632,13.483398 12.927124,13.483398 12.927124,13.483398 C12.927124,13.483398 12.927124,16.035034 12.927124,16.035034 ZM18.06665,17.310913 C18.06665,17.310913 23.206055,17.310913 23.206055,17.310913 C23.59143,17.310913 23.848389,17.055908 23.848389,16.673096 C23.848389,16.673096 23.848389,12.845337 23.848389,12.845337 C23.848389,12.462524 23.59143,12.207275 23.206055,12.207275 C23.206055,12.207275 18.06665,12.207275 18.06665,12.207275 C17.681152,12.207275 17.424072,12.462524 17.424072,12.845337 C17.424072,12.845337 17.424072,16.673096 17.424072,16.673096 C17.424072,17.055908 17.681152,17.310913 18.06665,17.310913 ZM18.709106,13.483398 C18.709106,13.483398 22.563599,13.483398 22.563599,13.483398 C22.563599,13.483398 22.563599,16.035034 22.563599,16.035034 C22.563599,16.035034 18.709106,16.035034 18.709106,16.035034 C18.709106,16.035034 18.709106,13.483398 18.709106,13.483398 C18.709106,13.483398 18.709106,13.483398 18.709106,13.483398 ZM27.70288,17.310913 C27.70288,17.310913 32.842285,17.310913 32.842285,17.310913 C33.227783,17.310913 33.48474,17.055908 33.48474,16.673096 C33.48474,16.673096 33.48474,12.845337 33.48474,12.845337 C33.48474,12.462524 33.227783,12.207275 32.842285,12.207275 C32.842285,12.207275 27.70288,12.207275 27.70288,12.207275 C27.317383,12.207275 27.060547,12.462524 27.060547,12.845337 C27.060547,12.845337 27.060547,16.673096 27.060547,16.673096 C27.060547,17.055908 27.317383,17.310913 27.70288,17.310913 ZM28.345337,13.483398 C28.345337,13.483398 32.19995,13.483398 32.19995,13.483398 C32.19995,13.483398 32.19995,16.035034 32.19995,16.035034 C32.19995,16.035034 28.345337,16.035034 28.345337,16.035034 C28.345337,16.035034 28.345337,13.483398 28.345337,13.483398 ZM18.06665,24.328735 C18.06665,24.328735 23.206055,24.328735 23.206055,24.328735 C23.59143,24.328735 23.848389,24.073486 23.848389,23.690674 C23.848389,23.690674 23.848389,19.862915 23.848389,19.862915 C23.848389,19.480103 23.59143,19.225098 23.206055,19.225098 C23.206055,19.225098 18.06665,19.225098 18.06665,19.225098 C17.681152,19.225098 17.424072,19.480103 17.424072,19.862915 C17.424072,19.862915 17.424072,23.690674 17.424072,23.690674 C17.424072,24.073486 17.681152,24.328735 18.06665,24.328735 ZM18.709106,20.500977 C18.709106,20.500977 22.563599,20.500977 22.563599,20.500977 C22.563599,20.500977 22.563599,23.052612 22.563599,23.052612 C22.563599,23.052612 18.709106,23.052612 18.709106,23.052612 C18.709106,23.052612 18.709106,20.500977 18.709106,20.500977 C18.709106,20.500977 18.709106,20.500977 18.709106,20.500977 ZM27.70288,24.328735 C27.70288,24.328735 32.842285,24.328735 32.842285,24.328735 C33.227783,24.328735 33.48474,24.073486 33.48474,23.690674 C33.48474,23.690674 33.48474,19.862915 33.48474,19.862915 C33.48474,19.480103 33.227783,19.225098 32.842285,19.225098 C32.842285,19.225098 27.70288,19.225098 27.70288,19.225098 C27.317383,19.225098 27.060547,19.480103 27.060547,19.862915 C27.060547,19.862915 27.060547,23.690674 27.060547,23.690674 C27.060547,24.073486 27.317383,24.328735 27.70288,24.328735 ZM28.345337,20.500977 C28.345337,20.500977 32.19995,20.500977 32.19995,20.500977 C32.19995,20.500977 32.19995,23.052612 32.19995,23.052612 C32.19995,23.052612 28.345337,23.052612 28.345337,23.052612 C28.345337,23.052612 28.345337,20.500977 28.345337,20.500977 ZM13.56958,19.224854 C13.56958,19.224854 8.430298,19.224854 8.430298,19.224854 C8.0448,19.224854 7.787842,19.480103 7.787842,19.862915 C7.787842,19.862915 7.787842,23.690674 7.787842,23.690674 C7.787842,24.073486 8.0448,24.328491 8.430298,24.328491 C8.430298,24.328491 13.56958,24.328491 13.56958,24.328491 C13.9552,24.328491 14.212158,24.073486 14.212158,23.690674 C14.212158,23.690674 14.212158,19.862915 14.212158,19.862915 C14.212158,19.480103 13.955078,19.224854 13.56958,19.224854 ZM12.927124,23.052612 C12.927124,23.052612 9.072632,23.052612 9.072632,23.052612 C9.072632,23.052612 9.072632,20.500977 9.072632,20.500977 C9.072632,20.500977 12.927124,20.500977 12.927124,20.500977 C12.927124,20.500977 12.927124,23.052612 12.927124,23.052612 ZM18.06665,10.293335 C18.06665,10.293335 23.206055,10.293335 23.206055,10.293335 C23.59143,10.293335 23.848389,10.03833 23.848389,9.655518 C23.848389,9.655518 23.848389,5.827759 23.848389,5.827759 C23.848389,5.4449463 23.59143,5.1896973 23.206055,5.1896973 C23.206055,5.1896973 18.06665,5.1896973 18.06665,5.1896973 C17.681152,5.1896973 17.424072,5.4449463 17.424072,5.827759 C17.424072,5.827759 17.424072,9.655518 17.424072,9.655518 C17.424072,10.038086 17.681152,10.293335 18.06665,10.293335 ZM18.709106,6.465576 C18.709106,6.465576 22.563599,6.465576 22.563599,6.465576 C22.563599,6.465576 22.563599,9.017578 22.563599,9.017578 C22.563599,9.017578 18.709106,9.017578 18.709106,9.017578 C18.709106,9.017578 18.709106,6.465576 18.709106,6.465576 C18.709106,6.465576 18.709106,6.465576 18.709106,6.465576 ZM27.70288,10.293335 C27.70288,10.293335 32.842285,10.293335 32.842285,10.293335 C33.227783,10.293335 33.48474,10.03833 33.48474,9.655518 C33.48474,9.655518 33.48474,5.827759 33.48474,5.827759 C33.48474,5.4449463 33.227783,5.1896973 32.842285,5.1896973 C32.842285,5.1896973 27.70288,5.1896973 27.70288,5.1896973 C27.317383,5.1896973 27.060547,5.4449463 27.060547,5.827759 C27.060547,5.827759 27.060547,9.655518 27.060547,9.655518 C27.060547,10.038086 27.317383,10.293335 27.70288,10.293335 ZM28.345337,6.465576 C28.345337,6.465576 32.19995,6.465576 32.19995,6.465576 C32.19995,6.465576 32.19995,9.017578 32.19995,9.017578 C32.19995,9.017578 28.345337,9.017578 28.345337,9.017578 C28.345337,9.017578 28.345337,6.465576 28.345337,6.465576 ZM16.781738,27.518555 C16.781738,27.518555 24.490845,27.518555 24.490845,27.518555 C24.87622,27.518555 25.133179,27.263184 25.133179,26.880493 C25.133179,26.49768 24.87622,26.242676 24.490845,26.242676 C24.490845,26.242676 16.781738,26.242676 16.781738,26.242676 C16.396362,26.242676 16.139404,26.49768 16.139404,26.880493 C16.139282,27.263184 16.396362,27.518555 16.781738,27.518555 Z"/>
</svg>