<svg xmlns="http://www.w3.org/2000/svg"
 xmlns:xlink="http://www.w3.org/1999/xlink"
 width="18px" height="13px"  viewBox="0 0 18 13">
<path fill-rule="evenodd"  fill="#ed7e01"
 d="M15.660553,11.999023 C15.997681,11.999023 16.289978,11.895508 16.53833,11.690186 C16.53833,11.690186 12.288666,7.723877 12.288666,7.723877 C12.186584,7.791992 12.08783,7.8581543 11.994324,7.9213867 C11.6763,8.140137 11.418213,8.310791 11.21991,8.433105 C11.02179,8.555664 10.758118,8.680176 10.429108,8.808105 C10.099762,8.935547 9.792816,8.999268 9.508209,8.999268 C9.508209,8.999268 9.499847,8.999268 9.499847,8.999268 C9.499847,8.999268 9.491608,8.999268 9.491608,8.999268 C9.206879,8.999268 8.899963,8.935547 8.570587,8.808105 C8.241333,8.680176 7.977661,8.555664 7.7796936,8.433105 C7.581604,8.310791 7.3235474,8.140137 7.005371,7.9213867 C6.916687,7.86084 6.81839,7.7941895 6.711975,7.7229004 C6.711975,7.7229004 2.4613953,11.690186 2.4613953,11.690186 C2.7097168,11.895508 3.0021362,11.999023 3.339264,11.999023 C3.339264,11.999023 15.660553,11.999023 15.660553,11.999023 ZM2.845459,5.2263184 C2.5274353,5.0285645 2.245453,4.802246 1.9999695,4.546875 C1.9999695,4.546875 1.9999695,10.581055 1.9999695,10.581055 C1.9999695,10.581055 5.7456055,7.085449 5.7456055,7.085449 C4.996277,6.597168 4.0308228,5.9782715 2.845459,5.2263184 ZM16.163055,5.2263184 C15.022644,5.946533 14.0538025,6.5666504 13.255798,7.08667 C13.255798,7.08667 16.99997,10.581299 16.99997,10.581299 C16.99997,10.581299 16.99997,4.546875 16.99997,4.546875 C16.75998,4.796875 16.48108,5.0231934 16.163055,5.2263184 ZM15.660553,1.0002441 C15.660553,1.0002441 3.339264,1.0002441 3.339264,1.0002441 C2.9094238,1.0002441 2.5789185,1.1357422 2.347412,1.4064941 C2.1157837,1.6772461 2.0000916,2.0158691 2.0000916,2.4221191 C2.0000916,2.7502441 2.1535645,3.1054688 2.4604797,3.4885254 C2.7673035,3.871338 3.093811,4.171875 3.4398804,4.390625 C3.6293945,4.515625 4.201477,4.8867188 5.155792,5.503662 C5.6710205,5.83667 6.118927,6.1271973 6.5040283,6.3779297 C6.832245,6.5910645 7.115143,6.775879 7.348816,6.9294434 C7.3756104,6.9470215 7.4178467,6.975342 7.4737854,7.012207 C7.53421,7.0529785 7.6105347,7.104004 7.7046204,7.1674805 C7.886017,7.290039 8.036743,7.388916 8.156677,7.4645996 C8.276611,7.540283 8.4216,7.624756 8.59198,7.718506 C8.7621765,7.8120117 8.9227295,7.8825684 9.073334,7.9294434 C9.22406,7.976074 9.363556,7.9995117 9.491852,7.9995117 C9.491852,7.9995117 9.500183,7.9995117 9.500183,7.9995117 C9.500183,7.9995117 9.508423,7.9995117 9.508423,7.9995117 C9.636963,7.9995117 9.776337,7.976074 9.926941,7.9294434 C10.077667,7.8825684 10.238098,7.8120117 10.408386,7.718506 C10.578674,7.624756 10.72345,7.540039 10.843628,7.4645996 C10.963776,7.388916 11.114502,7.290039 11.295776,7.1674805 C11.38974,7.104004 11.466064,7.0529785 11.526367,7.012451 C11.5824585,6.975342 11.624573,6.9470215 11.651581,6.9294434 C11.833527,6.8112793 12.117249,6.626953 12.498535,6.379883 C13.192627,5.9299316 14.2146,5.267578 15.569,4.390625 C15.976196,4.125 16.31665,3.8046875 16.590149,3.4296875 C16.86322,3.0549316 16.99997,2.6618652 16.99997,2.2502441 C16.99997,1.9064941 16.86734,1.6123047 16.602509,1.3674316 C16.337128,1.1228027 16.023315,1.0002441 15.660553,1.0002441 Z"/>
</svg>