<svg xmlns="http://www.w3.org/2000/svg"
 xmlns:xlink="http://www.w3.org/1999/xlink"
 width="51px" height="41px"  viewBox="0 0 51 41">
<path fill-rule="evenodd"  fill="#ed7e00"
 d="M11.5998535,32.236084 C10.719849,32.236084 9.999878,32.940186 9.999878,33.80078 C9.999878,34.661377 10.719849,35.365723 11.5998535,35.365723 C12.47998,35.365723 13.199951,34.661377 13.199951,33.80078 C13.199951,32.940186 12.47998,32.236084 11.5998535,32.236084 ZM32.399902,32.236084 C31.519775,32.236084 30.799927,32.940186 30.799927,33.80078 C30.799927,34.661377 31.519775,35.365723 32.399902,35.365723 C33.279907,35.365723 33.999878,34.661377 33.999878,33.80078 C33.999878,32.940186 33.279785,32.236084 32.399902,32.236084 ZM49.19995,23.629395 C49.19995,23.629395 46.799927,23.629395 46.799927,23.629395 C46.799927,23.629395 46.799927,21.282227 46.799927,21.282227 C46.799927,20.812744 46.47986,20.499756 45.999878,20.499756 C45.52002,20.499756 45.19995,20.812744 45.19995,21.282227 C45.19995,21.282227 45.19995,23.629395 45.19995,23.629395 C45.19995,23.629395 42.0,23.629395 42.0,23.629395 C42.0,23.629395 42.0,4.7734375 42.0,4.7734375 C42.0,3.0524902 40.640015,1.722168 38.95996,1.722168 C38.95996,1.722168 5.119873,1.722168 5.119873,1.722168 C3.3599854,1.722168 1.9998779,3.0524902 1.9998779,4.7734375 C1.9998779,4.7734375 1.9998779,23.629395 1.9998779,23.629395 C1.9998779,23.629395 1.9998779,25.194336 1.9998779,25.194336 C1.9998779,25.194336 1.9998779,31.844727 1.9998779,31.844727 C1.9998779,33.3313 3.2799072,34.583252 4.7999268,34.583252 C4.7999268,34.583252 6.0565186,34.583252 6.0565186,34.583252 C6.4384766,37.256104 8.752075,39.277588 11.599976,39.277588 C14.447998,39.277588 16.761475,37.256104 17.143555,34.583252 C17.143555,34.583252 26.856445,34.583252 26.856445,34.583252 C27.238525,37.256104 29.552002,39.277588 32.400024,39.277588 C35.247925,39.277588 37.561523,37.256104 37.94348,34.583252 C37.94348,34.583252 42.0,34.583252 42.0,34.583252 C42.0,34.583252 42.0,25.194336 42.0,25.194336 C42.0,25.194336 49.19995,25.194336 49.19995,25.194336 C49.680054,25.194336 50.0,24.881348 50.0,24.411865 C49.999878,23.942627 49.67993,23.629395 49.19995,23.629395 ZM3.5998535,17.370361 C3.5998535,17.370361 14.800049,17.370361 14.800049,17.370361 C15.280029,17.370361 15.599976,17.057373 15.599976,16.58789 C15.599976,16.118408 15.280029,15.80542 14.800049,15.80542 C14.800049,15.80542 3.5998535,15.80542 3.5998535,15.80542 C3.5998535,15.80542 3.5998535,13.458252 3.5998535,13.458252 C3.5998535,13.458252 11.5998535,13.458252 11.5998535,13.458252 C12.079834,13.458252 12.399902,13.145508 12.399902,12.676025 C12.399902,12.206543 12.079834,11.893555 11.5998535,11.893555 C11.5998535,11.893555 3.5998535,11.893555 3.5998535,11.893555 C3.5998535,11.893555 3.5998535,4.7734375 3.5998535,4.7734375 C3.5998535,3.9128418 4.23999,3.2868652 5.119873,3.2868652 C5.119873,3.2868652 38.879883,3.2868652 38.879883,3.2868652 C39.759888,3.2868652 40.399902,3.9909668 40.399902,4.7734375 C40.399902,4.7734375 40.399902,23.629395 40.399902,23.629395 C40.399902,23.629395 3.5998535,23.629395 3.5998535,23.629395 C3.5998535,23.629395 3.5998535,17.370361 3.5998535,17.370361 ZM11.5998535,37.71289 C9.359985,37.71289 7.5998535,35.991455 7.5998535,33.800537 C7.5998535,31.609863 9.359863,29.888428 11.5998535,29.888428 C13.839844,29.888428 15.599976,31.609863 15.599976,33.800537 C15.599976,35.991455 13.839844,37.71289 11.5998535,37.71289 ZM32.399902,37.71289 C30.159912,37.71289 28.39978,35.991455 28.39978,33.800537 C28.39978,31.609863 30.15979,29.888428 32.399902,29.888428 C34.639893,29.888428 36.399902,31.609863 36.399902,33.800537 C36.39978,35.991455 34.639893,37.71289 32.399902,37.71289 ZM40.399902,33.01831 C40.399902,33.01831 37.943237,33.01831 37.943237,33.01831 C37.56128,30.345215 35.247803,28.323975 32.39978,28.323975 C32.38684,28.323975 32.374146,28.324707 32.361206,28.324707 C32.347412,28.324707 32.33362,28.323975 32.319946,28.323975 C29.519897,28.323975 27.199951,30.358154 26.799805,33.01831 C26.799805,33.01831 17.143433,33.01831 17.143433,33.01831 C16.785278,30.511475 14.728394,28.579102 12.125244,28.348145 C12.106201,28.346191 12.086914,28.345459 12.067749,28.343994 C12.002197,28.338623 11.936768,28.333252 11.870605,28.330322 C11.780884,28.326172 11.690674,28.32373 11.5998535,28.32373 C11.509155,28.32373 11.418945,28.326172 11.329224,28.330322 C11.263062,28.333252 11.197632,28.338623 11.13208,28.343994 C11.112915,28.345459 11.093628,28.346191 11.074585,28.348145 C8.471436,28.579102 6.414551,30.511475 6.0563965,33.01831 C6.0563965,33.01831 4.7999268,33.01831 4.7999268,33.01831 C4.160034,33.01831 3.5998535,32.47046 3.5998535,31.844727 C3.5998535,31.844727 3.5998535,25.194336 3.5998535,25.194336 C3.5998535,25.194336 40.399902,25.194336 40.399902,25.194336 C40.399902,25.194336 40.399902,33.01831 40.399902,33.01831 Z"/>
</svg>