<svg xmlns="http://www.w3.org/2000/svg"
 xmlns:xlink="http://www.w3.org/1999/xlink"
 width="18px" height="18px"  viewBox="0 0 18 18">
<path fill-rule="evenodd"  fill="#ed7e01"
 d="M14.451019,1.723877 C14.451019,1.723877 4.288452,1.723877 4.288452,1.723877 C2.9968567,1.723877 1.9492798,2.769043 1.9492798,4.0634766 C1.9492798,4.0634766 1.9492798,14.232178 1.9492798,14.232178 C1.9492798,15.524414 2.9968567,16.572021 4.288452,16.572021 C4.288452,16.572021 14.451019,16.572021 14.451019,16.572021 C15.74353,16.572021 16.79123,15.524414 16.79123,14.232178 C16.79123,14.232178 16.79123,4.0634766 16.79123,4.0634766 C16.79123,2.769043 15.74353,1.723877 14.451019,1.723877 ZM9.146362,3.2734375 C9.146362,3.2734375 9.30896,5.8342285 9.30896,5.8342285 C9.30896,5.8342285 8.717987,6.005127 8.717987,6.005127 C8.717987,6.005127 8.433838,3.2043457 8.433838,3.2043457 C8.433838,3.2043457 9.146362,3.2734375 9.146362,3.2734375 ZM11.683502,14.867676 C11.683502,14.867676 9.091431,14.814453 9.091431,14.814453 C4.809845,10.233398 5.507477,4.904785 5.507477,4.904785 C5.507477,4.904785 7.4577637,3.2280273 7.4577637,3.2280273 C7.4577637,3.2280273 7.8419495,3.2280273 7.8419495,3.2280273 C7.8419495,3.2280273 8.15448,6.157959 8.15448,6.157959 C8.15448,6.157959 7.300995,6.7248535 7.300995,6.7248535 C7.300995,6.7248535 9.483368,12.4453125 9.483368,12.4453125 C9.483368,12.4453125 10.338928,12.172852 10.338928,12.172852 C10.338928,12.172852 11.979431,14.618652 11.979431,14.618652 C11.979431,14.618652 11.683502,14.867676 11.683502,14.867676 ZM12.506683,14.322754 C12.506683,14.322754 10.771179,11.916016 10.771179,11.916016 C10.771179,11.916016 11.42865,11.633545 11.42865,11.633545 C11.42865,11.633545 12.941895,13.886963 12.941895,13.886963 C12.941895,13.886963 12.506683,14.322754 12.506683,14.322754 Z"/>
</svg>