<svg xmlns="http://www.w3.org/2000/svg"
 xmlns:xlink="http://www.w3.org/1999/xlink"
 width="17px" height="18px"  viewBox="0 0 17 18">
<path fill-rule="evenodd"  fill="#ed7e01"
 d="M8.495178,16.013184 C4.356079,16.013184 1.0005493,12.655762 1.0005493,8.51416 C1.0005493,4.3725586 4.356079,1.0151367 8.495178,1.0151367 C12.634277,1.0151367 15.989685,4.3725586 15.989685,8.51416 C15.989685,12.655762 12.634277,16.013184 8.495178,16.013184 ZM13.926758,12.183594 C14.554352,11.258301 14.951233,10.164551 15.035126,8.98291 C15.035126,8.98291 11.285339,8.98291 11.285339,8.98291 C11.261902,9.854004 11.188873,10.705078 11.050415,11.517578 C12.065247,11.661621 13.029877,11.885254 13.926758,12.183594 ZM6.643402,8.98291 C6.668457,9.808105 6.7431946,10.620117 6.8843994,11.399902 C7.4114075,11.353516 7.9480286,11.326172 8.495178,11.326172 C9.042419,11.326172 9.578918,11.353516 10.1059265,11.399902 C10.247253,10.620117 10.321991,9.808105 10.346924,8.98291 C10.346924,8.98291 6.643402,8.98291 6.643402,8.98291 ZM10.346924,8.04541 C10.321991,7.220703 10.247131,6.408203 10.1059265,5.6289062 C9.578918,5.6748047 9.042419,5.7021484 8.495178,5.7021484 C7.9480286,5.7021484 7.4115295,5.6748047 6.8845215,5.6289062 C6.7431946,6.408203 6.668457,7.220703 6.643402,8.04541 C6.643402,8.04541 10.346924,8.04541 10.346924,8.04541 ZM13.281647,12.991699 C12.516968,12.75 11.7092285,12.565918 10.86731,12.441406 C10.670807,13.300293 10.415588,14.115723 10.103516,14.869141 C11.339935,14.556152 12.436523,13.893066 13.281647,12.991699 ZM8.040497,15.052734 C8.191315,15.063477 8.341583,15.076172 8.495178,15.076172 C8.648743,15.076172 8.799011,15.063477 8.949951,15.052734 C9.348785,14.222168 9.671265,13.297852 9.9105835,12.317383 C9.444794,12.276367 8.972839,12.251953 8.495178,12.251953 C8.017487,12.251953 7.5456543,12.276367 7.0798645,12.317383 C7.319153,13.297852 7.6416626,14.222168 8.040497,15.052734 ZM6.8868103,14.869141 C6.5747375,14.115723 6.319641,13.300293 6.1231384,12.441406 C5.2810974,12.565918 4.473358,12.75 3.7086792,12.991699 C4.553833,13.893066 5.6505127,14.556152 6.8868103,14.869141 ZM5.9399414,11.517578 C5.8015747,10.705078 5.7284546,9.854004 5.7049866,8.98291 C5.7049866,8.98291 1.9553223,8.98291 1.9553223,8.98291 C2.039215,10.164551 2.4360962,11.258301 3.063568,12.183594 C3.9605713,11.885254 4.925049,11.661621 5.9399414,11.517578 ZM3.063568,4.8447266 C2.4360962,5.7700195 2.039215,6.8637695 1.9553223,8.04541 C1.9553223,8.04541 5.7049866,8.04541 5.7049866,8.04541 C5.7284546,7.1743164 5.8015747,6.323242 5.9399414,5.510742 C4.925049,5.3671875 3.9605713,5.1435547 3.063568,4.8447266 ZM3.7086792,4.036621 C4.473358,4.2783203 5.2810974,4.4628906 6.123047,4.586914 C6.319641,3.7285156 6.5747375,2.913086 6.8868103,2.1591797 C5.6505127,2.472168 4.553833,3.135254 3.7086792,4.036621 ZM8.949951,1.9755859 C8.799011,1.965332 8.648743,1.9521484 8.495178,1.9521484 C8.341583,1.9521484 8.191315,1.965332 8.040497,1.9755859 C7.6416626,2.8061523 7.319153,3.7304688 7.0798645,4.7109375 C7.5456543,4.751953 8.017487,4.776367 8.495178,4.776367 C8.972839,4.776367 9.444794,4.751953 9.9105835,4.7109375 C9.671265,3.7304688 9.348785,2.8061523 8.949951,1.9755859 ZM10.103516,2.1591797 C10.415588,2.913086 10.670807,3.7285156 10.86731,4.586914 C11.7092285,4.4628906 12.516968,4.2783203 13.281647,4.036621 C12.436523,3.135254 11.339935,2.472168 10.103516,2.1591797 ZM11.050415,5.510742 C11.188873,6.323242 11.261902,7.1743164 11.285339,8.04541 C11.285339,8.04541 15.035126,8.04541 15.035126,8.04541 C14.951233,6.8637695 14.554352,5.7700195 13.926758,4.8447266 C13.029877,5.1435547 12.065247,5.3671875 11.050415,5.510742 Z"/>
</svg>