<svg xmlns="http://www.w3.org/2000/svg"
 xmlns:xlink="http://www.w3.org/1999/xlink"
 width="23px" height="22px"  viewBox="0 0 23 22">
<path fill-rule="evenodd"  fill="#ffffff"
 d="M21.999939,13.648926 C21.999939,13.648926 21.999939,21.0 21.999939,21.0 C21.999939,21.0 17.713257,21.0 17.713257,21.0 C17.713257,21.0 17.713257,14.141113 17.713257,14.141113 C17.713257,12.417969 17.093323,11.2421875 15.541626,11.2421875 C14.357117,11.2421875 13.652283,12.034668 13.342163,12.80127 C13.229126,13.075195 13.200012,13.456543 13.200012,13.840332 C13.200012,13.840332 13.200012,21.0 13.200012,21.0 C13.200012,21.0 8.911926,21.0 8.911926,21.0 C8.911926,21.0 8.969727,9.383301 8.911926,8.1796875 C8.911926,8.1796875 13.199585,8.1796875 13.199585,8.1796875 C13.199585,8.1796875 13.199585,9.99707 13.199585,9.99707 C13.190857,10.010742 13.1796875,10.025391 13.171387,10.038574 C13.171387,10.038574 13.199585,10.038574 13.199585,10.038574 C13.199585,10.038574 13.199585,9.99707 13.199585,9.99707 C13.769287,9.124512 14.786621,7.878418 17.063782,7.878418 C19.884888,7.878418 21.999939,9.7109375 21.999939,13.648926 ZM4.4263916,2.0 C2.9595337,2.0 1.999939,2.956543 1.999939,4.2143555 C1.999939,5.444824 2.9317017,6.430664 4.369507,6.430664 C4.369507,6.430664 4.3981323,6.430664 4.3981323,6.430664 C5.8935547,6.430664 6.8234863,5.4453125 6.8234863,4.2143555 C6.795349,2.956543 5.8935547,2.0 4.4263916,2.0 ZM2.2545776,21.0 C2.2545776,21.0 6.5410767,21.0 6.5410767,21.0 C6.5410767,21.0 6.5410767,8.1796875 6.5410767,8.1796875 C6.5410767,8.1796875 2.2545776,8.1796875 2.2545776,8.1796875 C2.2545776,8.1796875 2.2545776,21.0 2.2545776,21.0 Z"/>
</svg>