<svg xmlns="http://www.w3.org/2000/svg"
 xmlns:xlink="http://www.w3.org/1999/xlink"
 width="25px" height="20px"  viewBox="0 0 25 20">
<path fill-rule="evenodd"  fill="#ffffff"
 d="M22.420776,2.3139648 C21.587769,2.805664 20.66504,3.1625977 19.68335,3.355957 C18.897644,2.5200195 17.77887,2.0 16.539429,2.0 C14.159668,2.0 12.230774,3.9223633 12.230774,6.291992 C12.230774,6.6279297 12.269226,6.9560547 12.342346,7.2695312 C8.762268,7.0908203 5.5877075,5.3813477 3.4628906,2.784668 C3.091858,3.4174805 2.880249,4.154785 2.880249,4.9418945 C2.880249,6.432129 3.6414795,7.7460938 4.7963257,8.514648 C4.090088,8.491211 3.4263306,8.297852 2.8450928,7.975586 C2.8450928,7.975586 2.8450928,8.029297 2.8450928,8.029297 C2.8450928,10.109375 4.3304443,11.843262 6.300293,12.239258 C5.939453,12.336426 5.558838,12.389648 5.1655273,12.389648 C4.887207,12.389648 4.618286,12.361816 4.354126,12.312012 C4.902771,14.01709 6.493164,15.258301 8.377747,15.293945 C6.9039917,16.444336 5.045471,17.130371 3.027771,17.130371 C2.6797485,17.130371 2.336975,17.109863 1.9998779,17.071777 C3.9068604,18.288574 6.170166,19.0 8.604004,19.0 C16.528137,19.0 20.861084,12.458984 20.861084,6.786133 C20.861084,6.786133 20.846985,6.2299805 20.846985,6.2299805 C21.69159,5.6274414 22.42334,4.8710938 23.000122,4.0112305 C22.227295,4.352051 21.398071,4.5839844 20.52655,4.6875 C21.416138,4.15625 22.09784,3.3139648 22.420776,2.3139648 Z"/>
</svg>